<?xml version="1.0" encoding="utf-8"?>
<!-- Generator: Adobe Illustrator 27.9.0, SVG Export Plug-In . SVG Version: 6.00 Build 0)  -->
<svg version="1.1" id="Layer_1" xmlns="http://www.w3.org/2000/svg" xmlns:xlink="http://www.w3.org/1999/xlink" x="0px" y="0px"
	 viewBox="0 0 600 600" style="enable-background:new 0 0 600 600;" xml:space="preserve">
<style type="text/css">
	.st0{fill:#231F20;}
</style>
<g>
	<g>
		<path class="st0" d="M260.3,93.5c36.8,0,71,16.6,93.8,45.5c10.9,13.8,18.7,30.2,22.6,47.2c4.2,18.3,4,37.3-0.6,56.4
			c-5,21-15.8,40.1-31.1,55.4c-15.3,15.3-34.5,26-55.5,30.9c-9.7,2.3-19.6,3.4-29.2,3.4c-25.4,0-49.7-7.9-70.1-22.7
			c-3.5-2.5-7.6-3.9-11.9-3.9c-11.1,0-20.1,9-20.1,20.1v146.5c0,18.9-15.4,34.2-34.2,34.2h-5.7c-18.9,0-34.2-15.4-34.2-34.2V93.5
			h40.1c13,0,25,7.6,30.7,19.3c3.3,6.9,10.5,11.4,18.1,11.4c4.6,0,9.1-1.6,12.6-4.5C206.9,102.6,232.8,93.5,260.3,93.5 M260.3,73.5
			c-33,0-63.4,11.5-87.3,30.7c0,0-0.1,0-0.1,0c-0.1,0-0.1,0-0.1-0.1c-8.7-18.1-27.3-30.6-48.7-30.6h-53c-3.9,0-7.1,3.2-7.1,7.1
			v391.7c0,30,24.3,54.2,54.2,54.2h5.7c30,0,54.2-24.3,54.2-54.2V325.9c0-0.1,0.1-0.1,0.1-0.1c0,0,0.1,0,0.1,0
			c23,16.7,51.3,26.5,81.9,26.5c11,0,22.3-1.3,33.8-4c50.1-11.8,89.6-51,101.5-101.1C417.5,155.4,348.5,73.5,260.3,73.5L260.3,73.5z
			"/>
	</g>
	<g>
		<path class="st0" d="M471.9,93.3c24.3,0,44.1,19.7,44.1,43.9s-19.8,43.9-44.1,43.9c-24.3,0-44.1-19.7-44.1-43.9
			S447.6,93.3,471.9,93.3 M472,228.1c9.7,0,19,3.9,26,11.1c7.1,7.2,11,16.8,11,26.9v170.4c0,38.7-31.4,70.1-70.1,70.1h-3.6V265v-2.7
			c1.3-18.3,16.1-33.1,34.7-34.1C470.7,228.1,471.4,228.1,472,228.1 M351.1,433c7,0,14.1,1.9,21.1,5.7c9.7,5.2,15.7,15.5,15.8,26.8
			v41.1h-41.2c-11.4,0-21.6-6-26.8-15.6l0,0l0,0c-10-18.7-4.6-33-0.5-39.9C326.2,439.7,338,433,351.1,433 M471.9,73.3
			c-35.4,0-64.1,28.6-64.1,63.9s28.7,63.9,64.1,63.9s64.1-28.6,64.1-63.9S507.3,73.3,471.9,73.3L471.9,73.3z M472,208.1
			c-1,0-2.1,0-3.1,0.1c-29.9,1.6-53.8,26.5-53.8,56.8h0.1v254.5c0,3.9,3.2,7.1,7.1,7.1h16.5c49.7,0,90.1-40.3,90.1-90.1V266.1
			C529,234.3,503.4,208.1,472,208.1L472,208.1z M351.1,413c-41.2,0-72.1,43.8-48.7,87.4c8.7,16.3,25.9,26.2,44.4,26.2H400
			c4.4,0,8-3.6,8-8v-53.2c-0.1-18.4-10-35.5-26.3-44.3C371.3,415.5,360.9,413,351.1,413L351.1,413z"/>
	</g>
</g>
</svg>
